<?xml version="1.0" encoding="utf-8"?>
<!-- Generator: Adobe Illustrator 18.1.1, SVG Export Plug-In . SVG Version: 6.00 Build 0)  -->
<svg version="1.1" id="Layer_1" xmlns="http://www.w3.org/2000/svg" xmlns:xlink="http://www.w3.org/1999/xlink" x="0px" y="0px"
	 viewBox="0 0 256 256" enable-background="new 0 0 256 256" xml:space="preserve">
<g>
	<path fill="#E8E8E8" d="M128,237.5c0.3,0,0.5,0,0.8,0h-1.6C127.5,237.5,127.7,237.5,128,237.5z"/>
	<path fill="#E8E8E8" d="M236.4,128C236.4,67.9,188,19.1,128,18.5v219C188,236.9,236.4,188.1,236.4,128z"/>
	<path fill="#E8E8E8" d="M129.1,237.5L129.1,237.5c-0.1,0-0.2,0-0.3,0H129.1z"/>
	<path fill="#E8E8E8" d="M129.1,18.5H128C128.4,18.5,128.7,18.5,129.1,18.5L129.1,18.5z"/>
	<path fill="#E8E8E8" d="M128,18.5c-60.5,0-109.5,49-109.5,109.5c0,60.2,48.6,109.1,108.7,109.5h1.6c0.1,0,0.2,0,0.3,0v-219
		C128.7,18.5,128.4,18.5,128,18.5z"/>
</g>
<g>
	<path fill="none" d="M70,128.2c0.1,32.3,26.4,58.4,58.7,58.3c0.2,0,0.4,0,0.5,0l-0.1-29.3c-0.2,0-0.4,0-0.5,0
		c-16.2,0-29.3-13-29.4-29.2c0-16.2,13-29.3,29.2-29.4c0.2,0,0.4,0,0.5,0l-0.1-29.3c-0.2,0-0.4,0-0.5,0C96,69.6,69.9,95.9,70,128.2z
		"/>
	<path fill="#55A7DD" d="M129.1,186.5c-32.4,0.1-58.8-26-58.9-58.3s26.1-58.6,58.5-58.7c0.2,0,0.4,0,0.5,0L129.1,11
		c-0.2,0-0.4,0-0.6,0c-4.4,0-8.7,0.3-12.9,0.8l-11.3,32c-6.4,1.9-12.5,4.4-18.2,7.6L55.3,36.9c-6.7,5.4-12.8,11.6-18.2,18.3
		l14.7,30.5c-3.2,5.7-5.7,11.8-7.5,18.3l-32,11.5c-0.5,4.2-0.7,8.5-0.7,12.9s0.3,8.7,0.8,12.9l32.1,11.3c1.9,6.4,4.4,12.5,7.6,18.2
		l-14.5,30.6c5.4,6.7,11.6,12.8,18.4,18.2L86.6,205c5.7,3.1,11.9,5.6,18.3,7.5l11.5,32c4.2,0.4,8.5,0.7,12.9,0.7c0.2,0,0.4,0,0.5,0
		l-0.2-58.5C129.4,186.5,129.3,186.5,129.1,186.5z"/>
	<path fill="#55A7DD" d="M128.5,98.7c-16.2,0-29.2,13.2-29.2,29.4s13.2,29.2,29.4,29.2c0.2,0,0.4,0,0.5,0L129,98.8
		C128.8,98.7,128.6,98.7,128.5,98.7z"/>
	<path fill="#1788C7" d="M157.8,127.9c0-16-12.9-28.9-28.8-29.2l0.2,58.5C145.1,156.9,157.9,143.9,157.8,127.9z"/>
	<path fill="#1788C7" d="M152.2,212.2c6.5-1.9,12.6-4.4,18.4-7.6l30.9,14.4c6.8-5.4,12.9-11.6,18.4-18.3l-14.8-30.5
		c3.2-5.7,5.7-11.8,7.5-18.3l32.3-11.5c0.4-4.2,0.7-8.5,0.7-12.9s-0.3-8.7-0.8-12.9l-32.3-11.3c-1.9-6.4-4.4-12.5-7.6-18.2
		l14.6-30.6c-5.5-6.7-11.7-12.8-18.5-18.2l-30.8,14.6c-5.8-3.1-11.9-5.6-18.4-7.5l-11.6-31.9c-4.1-0.4-8.2-0.7-12.5-0.7l0.2,58.5
		c32.4,0.2,58.6,26.2,58.7,58.3c0.1,32.1-26,58.3-58.3,58.7l0.2,58.5c4.2,0,8.4-0.3,12.5-0.8L152.2,212.2z"/>
</g>
</svg>
