<?xml version="1.0" encoding="utf-8"?>
<!-- Generator: Adobe Illustrator 18.1.1, SVG Export Plug-In . SVG Version: 6.00 Build 0)  -->
<svg version="1.1" id="Layer_1" xmlns="http://www.w3.org/2000/svg" xmlns:xlink="http://www.w3.org/1999/xlink" x="0px" y="0px"
	 viewBox="0 0 256 256" enable-background="new 0 0 256 256" xml:space="preserve">
<g>
	<path fill="#E8E8E8" d="M128,237.5c0.3,0,0.5,0,0.8,0h-1.6C127.5,237.5,127.7,237.5,128,237.5z"/>
	<path fill="#E8E8E8" d="M236.4,128C236.4,67.9,188,19.1,128,18.5v219C188,236.9,236.4,188.1,236.4,128z"/>
	<path fill="#E8E8E8" d="M129.1,237.5L129.1,237.5c-0.1,0-0.2,0-0.3,0H129.1z"/>
	<path fill="#E8E8E8" d="M129.1,18.5H128C128.4,18.5,128.7,18.5,129.1,18.5L129.1,18.5z"/>
	<path fill="#E8E8E8" d="M128,18.5c-60.5,0-109.5,49-109.5,109.5c0,60.2,48.6,109.1,108.7,109.5h1.6c0.1,0,0.2,0,0.3,0v-219
		C128.7,18.5,128.4,18.5,128,18.5z"/>
</g>
<g>
	<path fill="#25B359" d="M217.8,78.6H128V218h77.8c6.7,0,12.2-5.6,12.2-12.4V78.5C218,78.6,217.9,78.6,217.8,78.6z"/>
	<path fill="#01AE53" d="M205.9,38h-77.3v44.6h89.3c0.1,0,0.2-0.1,0.2-0.2V50C218,43.4,212.5,38,205.9,38z"/>
	<path fill="#4FBA6F" d="M38,80v125.8c0,6.7,5.4,12.2,12,12.2h79.3V80H38z"/>
	<path fill="#25B359" d="M38,50v32.6h91.3V38H50C43.4,38,38,43.4,38,50z"/>
	<path opacity="0.47" fill="#F1F2F2" enable-background="new    " d="M68,47.1H52.2c-2.9,0-5.4,2.4-5.4,5.4v15.8
		c0,2.9,2.4,5.4,5.4,5.4H68c2.9,0,5.4-2.4,5.4-5.4V52.4C73.4,49.5,71,47.1,68,47.1z"/>
	<path opacity="0.47" fill="#F1F2F2" enable-background="new    " d="M203.4,47.1h-15.8c-2.9,0-5.4,2.4-5.4,5.4v15.8
		c0,2.9,2.4,5.4,5.4,5.4h15.8c2.9,0,5.4-2.4,5.4-5.4V52.4C208.7,49.5,206.3,47.1,203.4,47.1z"/>
	<path opacity="0.47" fill="#F1F2F2" enable-background="new    " d="M204.8,92.9H53.7c-2.9,0-5.4,2.4-5.4,5.4v3.3
		c0,2.9,2.4,5.4,5.4,5.4h151.1c2.9,0,5.4-2.4,5.4-5.4v-3.3C210.2,95.3,207.8,92.9,204.8,92.9z"/>
	<path opacity="0.47" fill="#F1F2F2" enable-background="new    " d="M204.8,122H53.7c-2.9,0-5.4,2.4-5.4,5.4v3.3
		c0,2.9,2.4,5.4,5.4,5.4h151.1c2.9,0,5.4-2.4,5.4-5.4v-3.3C210.2,124.4,207.8,122,204.8,122z"/>
	<path opacity="0.47" fill="#F1F2F2" enable-background="new    " d="M204.8,150.3H53.7c-2.9,0-5.4,2.4-5.4,5.4v3.3
		c0,2.9,2.4,5.4,5.4,5.4h151.1c2.9,0,5.4-2.4,5.4-5.4v-3.3C210.2,152.7,207.8,150.3,204.8,150.3z"/>
</g>
</svg>
